<svg xmlns="http://www.w3.org/2000/svg" width="40.746" height="52.273" viewBox="0 0 40.746 52.273"><defs><style>.a{fill:#909ea4;}</style></defs><g transform="translate(-889.167 165.238)"><path class="a" d="M927.95-137.755c0,.09-.349,9.041-6.469,14.525,0,0-8.964,8.218-11.786,8.218h-.311c-2.822,0-11.786-8.218-11.786-8.218-6.12-5.484-6.467-14.435-6.469-14.525v-17.218c9.642-.38,16.323-6.164,18.349-8.155l.06-.063c2.026,1.992,8.77,7.838,18.412,8.218Zm.181-19.3a26.489,26.489,0,0,1-17.256-7.635,1.864,1.864,0,0,0-1.333-.543h-.005a1.863,1.863,0,0,0-1.332.543,26.49,26.49,0,0,1-17.256,7.635,1.824,1.824,0,0,0-1.782,1.824v17.457c.011.431.364,9.933,7.147,16.012,7,6.268,11.8,8.358,12.7,8.714a1.294,1.294,0,0,0,.418.082v.006h.224v-.006a1.294,1.294,0,0,0,.418-.082c.892-.356,5.7-2.446,12.7-8.714,6.784-6.079,7.136-15.581,7.148-16.012v-17.457a1.824,1.824,0,0,0-1.782-1.824"/><path class="a" d="M910.88-145H908.2v-.474a1.341,1.341,0,0,1,1.34-1.34,1.341,1.341,0,0,1,1.34,1.34Zm-1.34-3.33a2.856,2.856,0,0,0-2.856,2.856v1.99H912.4v-1.99a2.856,2.856,0,0,0-2.856-2.856"/><path class="a" d="M917.97-131.293a.97.97,0,0,1-.97.97H902.08a.97.97,0,0,1-.97-.97v-11.221a.97.97,0,0,1,.97-.97h2.26v-1.874a5.2,5.2,0,0,1,5.2-5.2,5.2,5.2,0,0,1,5.2,5.2v1.874H917a.97.97,0,0,1,.97.97ZM917-145h-.744v-.358a6.723,6.723,0,0,0-6.716-6.715,6.723,6.723,0,0,0-6.716,6.715V-145h-.744a2.489,2.489,0,0,0-2.486,2.486v11.221a2.489,2.489,0,0,0,2.486,2.486H917a2.489,2.489,0,0,0,2.486-2.486v-11.221A2.489,2.489,0,0,0,917-145"/><path class="a" d="M910.524-137.285v2.818a.81.81,0,0,1-.81.81.81.81,0,0,1-.81-.81v-2.818a1.8,1.8,0,0,1-1-1.608,1.808,1.808,0,0,1,1.808-1.807,1.807,1.807,0,0,1,1.807,1.807,1.8,1.8,0,0,1-1,1.608"/></g></svg>