<svg xmlns="http://www.w3.org/2000/svg" width="54.291" height="28.62" viewBox="0 0 54.291 28.62"><defs><style>.a{fill:#909ea4;}</style></defs><g transform="translate(-988.82 155.01)"><path class="a" d="M1015.88-143.358a.872.872,0,0,1-.872-.872v-4.733a.872.872,0,0,1,.872-.872.871.871,0,0,1,.872.872v4.733a.871.871,0,0,1-.872.872"/><path class="a" d="M1003.873-138.384a.872.872,0,0,1-.617-.255l-3.346-3.346a.87.87,0,0,1,0-1.234.872.872,0,0,1,1.231,0l3.348,3.347a.873.873,0,0,1,0,1.233.872.872,0,0,1-.616.255"/><path class="a" d="M1000.225-132.958a.874.874,0,0,1-.337-.068l-4.363-1.835a.872.872,0,0,1-.466-1.141.869.869,0,0,1,1.141-.466l4.363,1.835a.871.871,0,0,1,.466,1.141.87.87,0,0,1-.8.534"/><path class="a" d="M1009.466-142.1a.873.873,0,0,1-.808-.542l-1.787-4.383a.871.871,0,0,1,.477-1.136.871.871,0,0,1,1.137.478l1.787,4.382a.871.871,0,0,1-.478,1.136.864.864,0,0,1-.328.065"/><path class="a" d="M1028.087-138.384a.868.868,0,0,0,.616-.255l3.347-3.346a.872.872,0,0,0,0-1.234.873.873,0,0,0-1.232,0l-3.347,3.347a.871.871,0,0,0,0,1.233.869.869,0,0,0,.616.255"/><path class="a" d="M1022.494-142.1a.874.874,0,0,0,.808-.542l1.787-4.383a.871.871,0,0,0-.478-1.136.871.871,0,0,0-1.137.478l-1.786,4.382a.869.869,0,0,0,.478,1.136.86.86,0,0,0,.328.065"/><path class="a" d="M1023.82-128.205a7.807,7.807,0,0,0,.2-1.735,8,8,0,0,0-.1-1.237.819.819,0,0,0,.108-.02l12.32-3.3a.89.89,0,0,0,.613-1.1.9.9,0,0,0-1.11-.61l-12.32,3.3c-.026.007-.048.019-.072.028a8.031,8.031,0,0,0-7.457-5.081,8.031,8.031,0,0,0-8.022,8.023,7.807,7.807,0,0,0,.2,1.735H990.7a25.3,25.3,0,0,1,25.269-24.933,25.3,25.3,0,0,1,25.269,24.933Zm-13.857-1.735a6.044,6.044,0,0,1,6.037-6.037,6.044,6.044,0,0,1,6.038,6.037,5.921,5.921,0,0,1-.269,1.735h-11.537a5.923,5.923,0,0,1-.269-1.735m33.144,1.743v-.008a27.177,27.177,0,0,0-27.142-26.8,27.178,27.178,0,0,0-27.145,26.92h.006v1.7h54.281v-1.7h0c0-.036,0-.071,0-.107"/></g></svg>