<svg xmlns="http://www.w3.org/2000/svg" width="64.348" height="59.689" viewBox="0 0 64.348 59.689"><defs><style>.a{fill:#2e4355;}</style></defs><g transform="translate(-1081.7 158.05)"><path class="a" d="M1110.58-146.433a.7.7,0,0,1-.026.078,4.551,4.551,0,0,0-.341,1.734,4.605,4.605,0,0,0,4.6,4.6,4.606,4.606,0,0,0,4.6-4.6,4.569,4.569,0,0,0-.341-1.734.533.533,0,0,1-.026-.077l-4.251-9.323Zm4.233,7.754a5.949,5.949,0,0,1-5.943-5.942,5.906,5.906,0,0,1,.4-2.135.561.561,0,0,1,.043-.13l4.87-10.769a.673.673,0,0,1,.611-.4h0a.669.669,0,0,1,.61.394l4.91,10.769a.64.64,0,0,1,.045.134,5.915,5.915,0,0,1,.4,2.132,5.949,5.949,0,0,1-5.943,5.942"/><path class="a" d="M1114.657-141.352h-.039a3.265,3.265,0,0,1-2.885-2.42c-.668-1.952.869-3.955.935-4.039a.533.533,0,0,1,.752-.093.537.537,0,0,1,.095.753c-.012.016-1.245,1.632-.766,3.031a2.186,2.186,0,0,0,1.946,1.7.538.538,0,0,1,.5.575.537.537,0,0,1-.535.5"/><path class="a" d="M1102.18-126.312a7.479,7.479,0,0,0-7.471,7.471,7.479,7.479,0,0,0,7.471,7.471,7.479,7.479,0,0,0,7.471-7.471,7.479,7.479,0,0,0-7.471-7.471m0,16.284a8.822,8.822,0,0,1-8.813-8.813,8.822,8.822,0,0,1,8.813-8.813,8.823,8.823,0,0,1,8.814,8.813,8.823,8.823,0,0,1-8.814,8.813M1099.9-99.856a.769.769,0,0,1,.048.118l4.428.035a.644.644,0,0,1,.113-.217l1.45-4.918a.673.673,0,0,1,.445-.451,14.022,14.022,0,0,0,2.53-1.079.668.668,0,0,1,.647,0l4.507,2.5a.638.638,0,0,1,.11.049l3.04-3a.681.681,0,0,1-.067-.176l-2.494-4.489a.672.672,0,0,1,0-.645,14.4,14.4,0,0,0,1.114-2.663.671.671,0,0,1,.458-.452l4.953-1.416a.749.749,0,0,1,.117-.046l.028-4.267a.669.669,0,0,1-.168-.075l-4.93-1.41a.671.671,0,0,1-.458-.452,14.186,14.186,0,0,0-1.114-2.661.671.671,0,0,1,0-.646l2.507-4.51a.59.59,0,0,1,.051-.118l-3-3.04a.642.642,0,0,1-.172.067l-4.49,2.494a.679.679,0,0,1-.646,0,14.167,14.167,0,0,0-2.667-1.118.671.671,0,0,1-.452-.458l-1.413-4.946a.711.711,0,0,1-.046-.115l-4.268-.032a.641.641,0,0,1-.077.171l-1.4,4.921a.672.672,0,0,1-.453.458,14.013,14.013,0,0,0-2.533,1.048.677.677,0,0,1-.635-.005l-4.585-2.5a.775.775,0,0,1-.112-.047l-3.16,3.1a.649.649,0,0,1,.074.234l2.464,4.527a.67.67,0,0,1,.005.633,14.39,14.39,0,0,0-1,2.386.671.671,0,0,1-.45.445l-5,1.473a.531.531,0,0,1-.116.047l-.035,4.428a.651.651,0,0,1,.218.114l4.931,1.454a.673.673,0,0,1,.45.445,14.271,14.271,0,0,0,1,2.387.67.67,0,0,1-.005.633l-2.5,4.59a.631.631,0,0,1-.047.111l3.106,3.157a.664.664,0,0,1,.235-.073l4.516-2.459a.674.674,0,0,1,.635,0,14.108,14.108,0,0,0,2.4,1.007.673.673,0,0,1,.444.451Zm4.476,1.5h-4.382a1.378,1.378,0,0,1-1.277-.84.661.661,0,0,1-.069-.155l-1.4-4.764a15.536,15.536,0,0,1-1.96-.824l-4.375,2.383a.7.7,0,0,1-.165.064,1.384,1.384,0,0,1-1.491-.314l-3.1-3.1a1.383,1.383,0,0,1-.308-1.5.653.653,0,0,1,.059-.152l2.387-4.385a15.692,15.692,0,0,1-.816-1.947l-4.777-1.409a.611.611,0,0,1-.16-.072,1.38,1.38,0,0,1-.835-1.275v-4.38a1.379,1.379,0,0,1,.842-1.279.661.661,0,0,1,.153-.068l4.777-1.409a15.848,15.848,0,0,1,.816-1.946l-2.387-4.386a.627.627,0,0,1-.063-.164,1.378,1.378,0,0,1,.312-1.491l3.1-3.1a1.38,1.38,0,0,1,1.494-.31.657.657,0,0,1,.161.061l4.381,2.387a15.147,15.147,0,0,1,2.1-.869l1.347-4.718a.681.681,0,0,1,.069-.159,1.356,1.356,0,0,1,1.257-.841h4.244a1.357,1.357,0,0,1,1.26.846.625.625,0,0,1,.066.154l1.348,4.719a15.537,15.537,0,0,1,2.24.938l4.3-2.388a.588.588,0,0,1,.157-.063,1.353,1.353,0,0,1,1.487.291l3,3a1.355,1.355,0,0,1,.294,1.485.692.692,0,0,1-.063.159L1116-125.872a15.5,15.5,0,0,1,.936,2.233l4.724,1.351a.661.661,0,0,1,.152.064,1.358,1.358,0,0,1,.848,1.261v4.244a1.358,1.358,0,0,1-.849,1.262.636.636,0,0,1-.151.064l-4.724,1.35a15.482,15.482,0,0,1-.935,2.233l2.392,4.306a.717.717,0,0,1,.065.164,1.372,1.372,0,0,1-.3,1.481l-3,3a1.359,1.359,0,0,1-1.494.291.57.57,0,0,1-.15-.061l-4.295-2.386a15.229,15.229,0,0,1-2.1.895l-1.4,4.764a.685.685,0,0,1-.07.158,1.38,1.38,0,0,1-1.276.837"/><path class="a" d="M1133.172-135.244a4.475,4.475,0,0,0-1.655.319,4.5,4.5,0,0,0-2.522,5.831,4.5,4.5,0,0,0,5.831,2.521,4.5,4.5,0,0,0,2.521-5.831,4.46,4.46,0,0,0-2.393-2.468,4.487,4.487,0,0,0-1.782-.372m.006,10.329a5.845,5.845,0,0,1-5.431-3.684,5.843,5.843,0,0,1,3.275-7.574,5.8,5.8,0,0,1,4.465.069,5.8,5.8,0,0,1,3.108,3.206,5.842,5.842,0,0,1-3.274,7.573,5.8,5.8,0,0,1-2.143.41m-10.59-11.7h0Zm11.306,14.59a.669.669,0,0,1,.528.258l1.978,2.529,2.3-.911-.289-3.2a.671.671,0,0,1,.246-.583,8.773,8.773,0,0,0,1.207-1.195.679.679,0,0,1,.6-.236l3.151.414.935-2.164-2.463-2.018a.669.669,0,0,1-.241-.6,8.8,8.8,0,0,0,.034-1.781.666.666,0,0,1,.259-.588l2.518-1.937-.867-2.19-3.162.313a.673.673,0,0,1-.592-.251,8.727,8.727,0,0,0-1.244-1.273.675.675,0,0,1-.235-.6l.414-3.158-2.164-.936-2.016,2.462a.643.643,0,0,1-.6.24,8.68,8.68,0,0,0-1.783-.033.686.686,0,0,1-.59-.26l-1.934-2.516-2.191.867.314,3.158a.669.669,0,0,1-.252.592,8.838,8.838,0,0,0-1.216,1.176.678.678,0,0,1-.591.23l-3.2-.39-.982,2.271,2.479,2.067a.677.677,0,0,1,.238.587,8.851,8.851,0,0,0-.032,1.6.671.671,0,0,1-.255.579l-2.536,1.984.911,2.3,3.207-.29a.667.667,0,0,1,.583.246,8.721,8.721,0,0,0,1.115,1.141.67.67,0,0,1,.23.59l-.391,3.206,2.27.982,2.064-2.476a.67.67,0,0,1,.589-.237,8.852,8.852,0,0,0,1.6.034l.051,0m2.441,4.171a1.114,1.114,0,0,1-.777-.316.589.589,0,0,1-.114-.114l-1.863-2.381a9.469,9.469,0,0,1-1.126-.024l-1.941,2.329a.74.74,0,0,1-.112.105,1.116,1.116,0,0,1-1.208.2l-2.55-1.1a1.119,1.119,0,0,1-.681-1.019.722.722,0,0,1,0-.154l.368-3.016a10.081,10.081,0,0,1-.781-.8l-3.019.273a.675.675,0,0,1-.156,0,1.121,1.121,0,0,1-.995-.712l-1.024-2.582a1.12,1.12,0,0,1,.24-1.2.742.742,0,0,1,.109-.108l2.388-1.868a10,10,0,0,1,.023-1.116l-2.334-1.946a.7.7,0,0,1-.106-.111,1.121,1.121,0,0,1-.2-1.209l1.1-2.55a1.119,1.119,0,0,1,1.022-.681.636.636,0,0,1,.151,0l3.014.367a10.092,10.092,0,0,1,.875-.848l-.3-2.967a.638.638,0,0,1,0-.152,1.1,1.1,0,0,1,.7-1l2.5-.991a1.12,1.12,0,0,1,1.192.247.706.706,0,0,1,.108.111l1.818,2.365a9.683,9.683,0,0,1,1.316.026l1.9-2.314a.773.773,0,0,1,.109-.106,1.1,1.1,0,0,1,1.2-.211l2.469,1.069a1.114,1.114,0,0,1,.667,1.015.632.632,0,0,1,0,.157l-.388,2.967a10.279,10.279,0,0,1,.918.939l2.971-.295a.71.71,0,0,1,.153,0,1.106,1.106,0,0,1,1,.7l.992,2.5a1.106,1.106,0,0,1-.251,1.2.627.627,0,0,1-.108.1l-2.367,1.82a10.159,10.159,0,0,1-.025,1.313l2.315,1.9a.726.726,0,0,1,.106.109,1.1,1.1,0,0,1,.21,1.2l-1.066,2.469a1.1,1.1,0,0,1-1.021.668h0a.62.62,0,0,1-.149,0l-2.96-.388a9.993,9.993,0,0,1-.871.863l.273,3.011a.687.687,0,0,1,0,.158,1.12,1.12,0,0,1-.709.992l-2.586,1.024a1.115,1.115,0,0,1-.418.081"/></g></svg>