<svg xmlns="http://www.w3.org/2000/svg" width="15.672" height="16.096" viewBox="0 0 15.672 16.096"><defs><style>.a{fill:#2b80c3;}</style></defs><g transform="translate(-2.413 -2.04)"><path class="a" d="M16.587,10.526V9.644l1.107-.969a1.153,1.153,0,0,0,.219-1.47L16.553,4.9a1.163,1.163,0,0,0-1.366-.519l-1.4.473a6.543,6.543,0,0,0-.755-.432l-.294-1.453a1.153,1.153,0,0,0-1.153-.928h-2.7a1.153,1.153,0,0,0-1.153.928L7.438,4.421a6.618,6.618,0,0,0-.761.432l-1.372-.5a1.153,1.153,0,0,0-.369-.035,1.153,1.153,0,0,0-1,.576L2.578,7.205a1.153,1.153,0,0,0,.236,1.447l1.09,1v.882l-1.09.969a1.153,1.153,0,0,0-.236,1.47l1.361,2.306a1.163,1.163,0,0,0,1.366.519l1.4-.473a6.543,6.543,0,0,0,.755.432l.294,1.453a1.153,1.153,0,0,0,1.153.928h2.721a1.153,1.153,0,0,0,1.153-.928l.294-1.453a6.618,6.618,0,0,0,.761-.432l1.4.473a1.163,1.163,0,0,0,1.366-.519l1.314-2.306a1.153,1.153,0,0,0-.236-1.447ZM15.555,14.7l-1.977-.669a5.108,5.108,0,0,1-1.562.905l-.409,2.07H8.885l-.409-2.047a5.4,5.4,0,0,1-1.557-.905L4.936,14.7,3.576,12.394,5.144,11.01a5.131,5.131,0,0,1,0-1.8L3.576,7.782,4.936,5.476l1.977.669a5.108,5.108,0,0,1,1.562-.905l.409-2.07h2.721l.409,2.047a5.4,5.4,0,0,1,1.557.905l1.983-.646,1.361,2.306L15.348,9.165a5.131,5.131,0,0,1,0,1.8l1.568,1.424Z" transform="translate(0 0)"/><path class="a" d="M13.459,16.918a3.459,3.459,0,1,1,3.459-3.459,3.424,3.424,0,0,1-3.459,3.459Zm0-5.765a2.254,2.254,0,1,0,1.646.66A2.254,2.254,0,0,0,13.459,11.153Z" transform="translate(-3.213 -3.371)"/></g></svg>