<svg xmlns="http://www.w3.org/2000/svg" width="74" height="74" viewBox="0 0 74 74"><defs><style>.a{fill:#bc1d26;}.b{fill:#fff;}</style></defs><g transform="translate(-386.718 -150.585)"><rect class="a" width="74" height="74" transform="translate(386.718 150.585)"/><path class="b" d="M432.341,267.815c-1.28-.86-2.462-1.327-6.331-1.327h-6v27.141H424.6v-10h2.524c2.524,0,3.509-.313,4.558-.9,2.492-1.405,3.933-4.3,3.933-7.887C435.616,271.72,434.469,269.221,432.341,267.815Zm-2.3,9.958c-.621,1.132-1.179,1.406-3.048,1.406H424.6V270.9h2.916c1.936,0,3.083,1.524,3.083,4.062A5.547,5.547,0,0,1,430.042,277.773Zm-10.032,18.42h1.055V307.2H420.01Zm12,2.807a2.3,2.3,0,0,0-1.964,1.107,4.9,4.9,0,0,0-.791,3.017c0,2.649,1.094,4.252,2.913,4.252a2.961,2.961,0,0,0,2.214-.994l-.4-.8a2.051,2.051,0,0,1-1.608.755,1.769,1.769,0,0,1-1.634-.978,3.766,3.766,0,0,1-.3-1.749v-.193h4.1v-.177c-.025-1.909-.185-2.663-.75-3.37A2.227,2.227,0,0,0,432.011,299Zm-1.568,3.466c.052-1.653.58-2.487,1.516-2.487a1.333,1.333,0,0,1,1.186.706,4.044,4.044,0,0,1,.3,1.781Zm10.182-2.262a2.74,2.74,0,0,1,.158.931V307.2h-1.042v-5.409c0-.851-.052-1.059-.237-1.332a.879.879,0,0,0-.725-.337,2.87,2.87,0,0,0-1.819,1.124V307.2h-1v-6.163a4.414,4.414,0,0,0-.25-1.685l1-.337a3.786,3.786,0,0,1,.238,1.252,2.77,2.77,0,0,1,2.069-1.236A1.738,1.738,0,0,1,440.625,300.2Zm-3.659-32.077a3.033,3.033,0,0,1,2.754-3.241,3.292,3.292,0,1,1-2.754,3.241Zm.493,5.857,4.393-.82v20.466h-4.393Zm6.16,25.242h1.7l-.316.947h-1.42v5.151c0,.883.2,1.189.844,1.189.29,0,.214,0,.4-.11l.146.8a1.32,1.32,0,0,1-.914.268,1.634,1.634,0,0,1-.857-.224c-.461-.273-.633-.787-.633-1.589v-5.488h-.857v-.947h.857V296.2h1.055Zm-15.7-3.044h-1.029v2.66c0,.577.013,1.235.013,1.235a2.055,2.055,0,0,0-1.779-1.01,1.833,1.833,0,0,0-1.266.5,4.616,4.616,0,0,0-1.358,3.706c0,2.551.976,4.043,2.676,4.043a1.944,1.944,0,0,0,1.741-.929,3.339,3.339,0,0,0,.145.818h1.055a9.738,9.738,0,0,1-.2-2.583Zm-1.042,8.981a1.539,1.539,0,0,1-.4.578,1.684,1.684,0,0,1-1.265.513,1.348,1.348,0,0,1-1.319-.931,5.414,5.414,0,0,1-.264-2.086,4.537,4.537,0,0,1,.422-2.31,1.361,1.361,0,0,1,1.227-.834,1.661,1.661,0,0,1,1.595.834Zm31.751-5.953-2.254,8.28c-.448,1.606-.976,2.665-2.123,3l-.3-.851a1.947,1.947,0,0,0,1.259-1.47c-.105-.631-.165-.9-.165-.9-.079-.513-.435-2.071-.659-2.872l-1.411-5.007,1.016-.418,1.345,5.183c.2.755.395,1.99.395,1.99h.027s.25-1.027.409-1.684l1.292-5.248Zm.888,6.534c0-.278-.144-.388-.411-.388H458.7v1.324h.206v-.57h.125l.288.57h.212l-.3-.579A.309.309,0,0,0,459.518,305.743Zm-.616.178v-.379h.184c.106,0,.226.025.226.181,0,.178-.106.2-.228.2Zm.171-1.067a1.185,1.185,0,1,0,.98,1.168A1.088,1.088,0,0,0,459.073,304.853Zm0,2.109a.968.968,0,1,1,.741-.941A.842.842,0,0,1,459.073,306.961ZM469.7,288.513l-2.362-.039c-.46,0-.721-.2-.721-.469,0-.545.623-1.014,1.737-1.64a4.385,4.385,0,0,0,.656.04,5.886,5.886,0,0,0,6.2-5.937,5.4,5.4,0,0,0-.987-3.278,7.983,7.983,0,0,0,1.15.115,3.86,3.86,0,0,0,3.082-1.484l-1.836-3.32a4.879,4.879,0,0,1-3.476,1.72,7.557,7.557,0,0,1-2.065-.431,10.333,10.333,0,0,0-3.018-.506c-4.294,0-7.082,2.655-7.082,6.755,0,2.967,1.18,4.8,3.607,5.545-2.756.857-3.082,2.07-3.082,3.358a2.618,2.618,0,0,0,1.278,2.615,10.182,10.182,0,0,0,4.033.626l1.869.039c1.74.039,3.083.587,3.083,2.382a2.508,2.508,0,0,1-1.081,2.03,4.576,4.576,0,0,1-2.753.663c-2.033,0-3.151-.857-3.151-2.46a3.267,3.267,0,0,1,.2-1.287h-4.067a4.615,4.615,0,0,0-.393,2.031,5.107,5.107,0,0,0,1.377,3.552c1.508,1.68,3.968,2.148,6.36,2.148,2.623,0,5.15-.7,6.624-2.578a6.3,6.3,0,0,0,1.346-4.137,6.019,6.019,0,0,0-1.444-4.257C473.6,289.019,472.253,288.551,469.7,288.513Zm-4.3-8.436c0-1.873.952-2.969,2.623-2.969s2.657,1.1,2.657,2.969c0,1.836-.951,2.85-2.69,2.85C466.449,282.928,465.4,282.108,465.4,280.077ZM452.87,277.7a4.849,4.849,0,0,0-3.047,1.794v14.138h-4.4V279.139a17.007,17.007,0,0,0-.59-4.686l3.9-1.326a5.842,5.842,0,0,1,.625,2.5,18.921,18.921,0,0,1,1.935-1.484,6.045,6.045,0,0,1,3.016-.857,4.169,4.169,0,0,1,4.033,2.889,9.491,9.491,0,0,1,.328,2.85v14.606h-4.33v-13C454.346,278.36,454.019,277.7,452.87,277.7Zm-2.251,22.46v5.151c0,.883.2,1.188.844,1.188.29,0,.214,0,.4-.109l.146.8a1.321,1.321,0,0,1-.914.268,1.634,1.634,0,0,1-.857-.224c-.461-.273-.632-.786-.632-1.589v-5.488h-.857v-.947h.857v-3.028h1.055v3.028h1.648l-.316.947Zm-4.186-.923,1.067-.2V307.2h-1.067Z" transform="translate(-24.526 -91.3)"/></g></svg>