<svg xmlns="http://www.w3.org/2000/svg" width="64.348" height="59.689"><defs><style>.a{fill:#2e4355}</style></defs><path class="a" d="M28.88 11.617a.7.7 0 01-.026.078 4.551 4.551 0 00-.341 1.734 4.605 4.605 0 004.6 4.6 4.606 4.606 0 004.6-4.6 4.569 4.569 0 00-.341-1.734.533.533 0 01-.026-.077l-4.251-9.323zm4.233 7.754a5.949 5.949 0 01-5.943-5.942 5.906 5.906 0 01.4-2.135.561.561 0 01.043-.13L32.483.395a.673.673 0 01.611-.4.669.669 0 01.61.394l4.91 10.769a.64.64 0 01.045.134 5.915 5.915 0 01.4 2.132 5.949 5.949 0 01-5.943 5.942"/><path class="a" d="M32.957 16.698h-.039a3.265 3.265 0 01-2.885-2.42c-.668-1.952.869-3.955.935-4.039a.533.533 0 01.752-.093.537.537 0 01.095.753c-.012.016-1.245 1.632-.766 3.031a2.186 2.186 0 001.946 1.7.538.538 0 01.5.575.537.537 0 01-.535.5M20.48 31.738a7.479 7.479 0 00-7.471 7.471 7.479 7.479 0 007.471 7.471 7.479 7.479 0 007.471-7.471 7.479 7.479 0 00-7.471-7.471m0 16.284a8.822 8.822 0 01-8.813-8.813 8.822 8.822 0 018.813-8.813 8.823 8.823 0 018.814 8.813 8.823 8.823 0 01-8.814 8.813M18.2 58.194a.769.769 0 01.048.118l4.428.035a.644.644 0 01.113-.217l1.45-4.918a.673.673 0 01.445-.451 14.022 14.022 0 002.53-1.079.668.668 0 01.647 0l4.507 2.5a.638.638 0 01.11.049l3.04-3a.681.681 0 01-.067-.176l-2.494-4.489a.672.672 0 010-.645 14.4 14.4 0 001.114-2.663.671.671 0 01.458-.452l4.953-1.416a.749.749 0 01.117-.046l.028-4.267a.669.669 0 01-.168-.075l-4.93-1.41a.671.671 0 01-.458-.452 14.186 14.186 0 00-1.114-2.661.671.671 0 010-.646l2.507-4.51a.59.59 0 01.051-.118l-3-3.04a.642.642 0 01-.172.067l-4.49 2.494a.679.679 0 01-.646 0 14.167 14.167 0 00-2.667-1.118.671.671 0 01-.452-.458l-1.413-4.946a.711.711 0 01-.046-.115l-4.268-.032a.641.641 0 01-.077.171l-1.4 4.921a.672.672 0 01-.453.458 14.013 14.013 0 00-2.533 1.048.677.677 0 01-.635-.005l-4.585-2.5a.775.775 0 01-.112-.047l-3.16 3.1a.649.649 0 01.074.234l2.464 4.527a.67.67 0 01.005.633 14.39 14.39 0 00-1 2.386.671.671 0 01-.45.445l-5 1.473a.531.531 0 01-.116.047l-.035 4.428a.651.651 0 01.218.114l4.931 1.454a.673.673 0 01.45.445 14.271 14.271 0 001 2.387.67.67 0 01-.005.633l-2.5 4.59a.631.631 0 01-.047.111l3.106 3.157a.664.664 0 01.235-.073l4.516-2.459a.674.674 0 01.635 0 14.108 14.108 0 002.4 1.007.673.673 0 01.444.451zm4.476 1.5h-4.382a1.378 1.378 0 01-1.277-.84.661.661 0 01-.069-.155l-1.4-4.764a15.536 15.536 0 01-1.96-.824l-4.375 2.383a.7.7 0 01-.165.064 1.384 1.384 0 01-1.491-.314l-3.1-3.1a1.383 1.383 0 01-.308-1.5.653.653 0 01.059-.152l2.387-4.385a15.692 15.692 0 01-.816-1.947l-4.777-1.409a.611.611 0 01-.16-.072 1.38 1.38 0 01-.835-1.275v-4.38a1.379 1.379 0 01.842-1.279.661.661 0 01.153-.068l4.777-1.409a15.848 15.848 0 01.816-1.946l-2.387-4.386a.627.627 0 01-.063-.164 1.378 1.378 0 01.312-1.491l3.1-3.1a1.38 1.38 0 011.494-.31.657.657 0 01.161.061l4.381 2.387a15.147 15.147 0 012.1-.869l1.347-4.718a.681.681 0 01.069-.159 1.356 1.356 0 011.257-.841h4.244a1.357 1.357 0 011.26.846.625.625 0 01.066.154l1.348 4.719a15.537 15.537 0 012.24.938l4.3-2.388a.588.588 0 01.157-.063 1.353 1.353 0 011.487.291l3 3a1.355 1.355 0 01.294 1.485.692.692 0 01-.063.159L34.3 32.178a15.5 15.5 0 01.936 2.233l4.724 1.351a.661.661 0 01.152.064 1.358 1.358 0 01.848 1.261v4.244a1.358 1.358 0 01-.849 1.262.636.636 0 01-.151.064l-4.724 1.35a15.482 15.482 0 01-.935 2.233l2.392 4.306a.717.717 0 01.065.164 1.372 1.372 0 01-.3 1.481l-3 3a1.359 1.359 0 01-1.494.291.57.57 0 01-.15-.061l-4.295-2.386a15.229 15.229 0 01-2.1.895l-1.4 4.764a.685.685 0 01-.07.158 1.38 1.38 0 01-1.276.837m28.799-36.883a4.475 4.475 0 00-1.655.319 4.5 4.5 0 00-2.522 5.831 4.5 4.5 0 005.831 2.521 4.5 4.5 0 002.521-5.831 4.46 4.46 0 00-2.393-2.468 4.487 4.487 0 00-1.782-.372m.006 10.329a5.845 5.845 0 01-5.431-3.684 5.843 5.843 0 013.275-7.574 5.8 5.8 0 014.465.069 5.8 5.8 0 013.108 3.206 5.842 5.842 0 01-3.274 7.573 5.8 5.8 0 01-2.143.41m-10.59-11.7zm11.306 14.59a.669.669 0 01.528.258l1.978 2.529 2.3-.911-.289-3.2a.671.671 0 01.246-.583 8.773 8.773 0 001.207-1.195.679.679 0 01.6-.236l3.151.414.935-2.164-2.463-2.018a.669.669 0 01-.241-.6 8.8 8.8 0 00.034-1.781.666.666 0 01.259-.588l2.518-1.937-.867-2.19-3.162.313a.673.673 0 01-.592-.251 8.727 8.727 0 00-1.244-1.273.675.675 0 01-.235-.6l.414-3.158-2.164-.936-2.016 2.462a.643.643 0 01-.6.24 8.68 8.68 0 00-1.783-.033.686.686 0 01-.59-.26l-1.934-2.516-2.191.867.314 3.158a.669.669 0 01-.252.592 8.838 8.838 0 00-1.216 1.176.678.678 0 01-.591.23l-3.2-.39-.982 2.271 2.479 2.067a.677.677 0 01.238.587 8.851 8.851 0 00-.032 1.6.671.671 0 01-.255.579l-2.536 1.984.911 2.3 3.207-.29a.667.667 0 01.583.246 8.721 8.721 0 001.115 1.141.67.67 0 01.23.59l-.391 3.206 2.27.982 2.064-2.476a.67.67 0 01.589-.237 8.852 8.852 0 001.6.034h.051m2.441 4.171a1.114 1.114 0 01-.777-.316.589.589 0 01-.114-.114l-1.863-2.381a9.469 9.469 0 01-1.126-.024l-1.941 2.329a.74.74 0 01-.112.105 1.116 1.116 0 01-1.208.2l-2.55-1.1a1.119 1.119 0 01-.681-1.019.722.722 0 010-.154l.368-3.016a10.081 10.081 0 01-.781-.8l-3.019.273a.675.675 0 01-.156 0 1.121 1.121 0 01-.995-.712l-1.024-2.582a1.12 1.12 0 01.24-1.2.742.742 0 01.109-.108l2.388-1.868a10 10 0 01.023-1.116l-2.334-1.946a.7.7 0 01-.106-.111 1.121 1.121 0 01-.2-1.209l1.1-2.55a1.119 1.119 0 011.022-.681.636.636 0 01.151 0l3.014.367a10.092 10.092 0 01.875-.848l-.3-2.967a.638.638 0 010-.152 1.1 1.1 0 01.7-1l2.5-.991a1.12 1.12 0 011.192.247.706.706 0 01.108.111l1.818 2.365a9.683 9.683 0 011.316.026l1.9-2.314a.773.773 0 01.109-.106 1.1 1.1 0 011.2-.211l2.469 1.069a1.114 1.114 0 01.667 1.015.632.632 0 010 .157l-.388 2.967a10.279 10.279 0 01.918.939l2.971-.295a.71.71 0 01.153 0 1.106 1.106 0 011 .7l.992 2.5a1.106 1.106 0 01-.251 1.2.627.627 0 01-.108.1l-2.367 1.82a10.159 10.159 0 01-.025 1.313l2.315 1.9a.726.726 0 01.106.109 1.1 1.1 0 01.21 1.2l-1.066 2.469a1.1 1.1 0 01-1.021.668.62.62 0 01-.149 0l-2.96-.388a9.993 9.993 0 01-.871.863l.273 3.011a.687.687 0 010 .158 1.12 1.12 0 01-.709.992l-2.586 1.024a1.115 1.115 0 01-.418.081"/></svg>