<svg xmlns="http://www.w3.org/2000/svg" width="54.291" height="28.62"><defs><style>.a{fill:#909ea4}</style></defs><path class="a" d="M27.06 11.652a.872.872 0 01-.872-.872V6.047a.872.872 0 01.872-.872.871.871 0 01.872.872v4.733a.871.871 0 01-.872.872m-12.007 4.974a.872.872 0 01-.617-.255l-3.346-3.346a.87.87 0 010-1.234.872.872 0 011.231 0l3.348 3.347a.873.873 0 010 1.233.872.872 0 01-.616.255m-3.648 5.426a.874.874 0 01-.337-.068l-4.363-1.835a.872.872 0 01-.466-1.141.869.869 0 011.141-.466l4.363 1.835a.871.871 0 01.466 1.141.87.87 0 01-.8.534m9.237-9.142a.873.873 0 01-.808-.542l-1.787-4.383a.871.871 0 01.477-1.136.871.871 0 011.137.478l1.787 4.382a.871.871 0 01-.478 1.136.864.864 0 01-.328.065m18.621 3.716a.868.868 0 00.616-.255l3.347-3.346a.872.872 0 000-1.234.873.873 0 00-1.232 0l-3.347 3.347a.871.871 0 000 1.233.869.869 0 00.616.255m-5.593-3.716a.874.874 0 00.808-.542l1.787-4.383a.871.871 0 00-.478-1.136.871.871 0 00-1.137.478l-1.786 4.382a.869.869 0 00.478 1.136.86.86 0 00.328.065"/><path class="a" d="M35 26.805a7.807 7.807 0 00.2-1.735 8 8 0 00-.1-1.237.819.819 0 00.108-.02l12.32-3.3a.89.89 0 00.613-1.1.9.9 0 00-1.11-.61l-12.32 3.3c-.026.007-.048.019-.072.028a8.031 8.031 0 00-7.457-5.081 8.031 8.031 0 00-8.022 8.023 7.807 7.807 0 00.2 1.735H1.88A25.3 25.3 0 0127.149 1.875a25.3 25.3 0 0125.269 24.933zM21.143 25.07a6.044 6.044 0 016.037-6.037 6.044 6.044 0 016.038 6.037 5.921 5.921 0 01-.269 1.735H21.412a5.923 5.923 0 01-.269-1.735m33.144 1.743v-.008A27.177 27.177 0 0027.145.005 27.178 27.178 0 000 26.925h.006v1.7h54.281v-1.807"/></svg>