<svg xmlns="http://www.w3.org/2000/svg" width="40.746" height="52.273"><defs><style>.a{fill:#909ea4}</style></defs><path class="a" d="M38.783 27.483c0 .09-.349 9.041-6.469 14.525 0 0-8.964 8.218-11.786 8.218h-.311c-2.822 0-11.786-8.218-11.786-8.218-6.12-5.484-6.467-14.435-6.469-14.525V10.265c9.642-.38 16.323-6.164 18.349-8.155l.06-.063c2.026 1.992 8.77 7.838 18.412 8.218zm.181-19.3A26.489 26.489 0 0121.708.548a1.864 1.864 0 00-1.333-.543h-.005a1.863 1.863 0 00-1.332.543A26.49 26.49 0 011.782 8.183 1.824 1.824 0 000 10.007v17.457c.011.431.364 9.933 7.147 16.012 7 6.268 11.8 8.358 12.7 8.714a1.294 1.294 0 00.418.082v.006h.224v-.006a1.294 1.294 0 00.418-.082c.892-.356 5.7-2.446 12.7-8.714 6.784-6.079 7.136-15.581 7.148-16.012V10.007a1.824 1.824 0 00-1.782-1.824"/><path class="a" d="M21.713 20.238h-2.68v-.474a1.341 1.341 0 011.34-1.34 1.341 1.341 0 011.34 1.34zm-1.34-3.33a2.856 2.856 0 00-2.856 2.856v1.99h5.716v-1.99a2.856 2.856 0 00-2.856-2.856"/><path class="a" d="M28.803 33.945a.97.97 0 01-.97.97h-14.92a.97.97 0 01-.97-.97V22.724a.97.97 0 01.97-.97h2.26V19.88a5.2 5.2 0 015.2-5.2 5.2 5.2 0 015.2 5.2v1.874h2.26a.97.97 0 01.97.97zm-.97-13.707h-.744v-.358a6.723 6.723 0 00-6.716-6.715 6.723 6.723 0 00-6.716 6.715v.358h-.744a2.489 2.489 0 00-2.486 2.486v11.221a2.489 2.489 0 002.486 2.486h14.92a2.489 2.489 0 002.486-2.486V22.724a2.489 2.489 0 00-2.486-2.486"/><path class="a" d="M21.357 27.953v2.818a.81.81 0 01-.81.81.81.81 0 01-.81-.81v-2.818a1.8 1.8 0 01-1-1.608 1.808 1.808 0 011.808-1.807 1.807 1.807 0 011.807 1.807 1.8 1.8 0 01-1 1.608"/></svg>