<svg xmlns="http://www.w3.org/2000/svg" width="15.672" height="16.096"><defs><style>.a{fill:#2b80c3}</style></defs><path class="a" d="M14.174 8.486v-.882l1.107-.969a1.153 1.153 0 00.219-1.47L14.14 2.86a1.163 1.163 0 00-1.366-.519l-1.4.473a6.543 6.543 0 00-.755-.432L10.325.929A1.153 1.153 0 009.172.001h-2.7a1.153 1.153 0 00-1.153.928l-.294 1.452a6.618 6.618 0 00-.761.432l-1.372-.5a1.153 1.153 0 00-.369-.035 1.153 1.153 0 00-1 .576L.165 5.165a1.153 1.153 0 00.236 1.447l1.09 1v.882l-1.09.969a1.153 1.153 0 00-.236 1.47l1.361 2.306a1.163 1.163 0 001.366.519l1.4-.473a6.543 6.543 0 00.755.432l.294 1.453a1.153 1.153 0 001.153.928h2.721a1.153 1.153 0 001.153-.928l.294-1.453a6.618 6.618 0 00.761-.432l1.4.473a1.163 1.163 0 001.366-.519l1.314-2.306a1.153 1.153 0 00-.236-1.447zm-1.032 4.174l-1.977-.669a5.108 5.108 0 01-1.562.905l-.409 2.07H6.472l-.409-2.047a5.4 5.4 0 01-1.557-.905l-1.983.646-1.36-2.306L2.731 8.97a5.131 5.131 0 010-1.8L1.163 5.742l1.36-2.306 1.977.669A5.108 5.108 0 016.062 3.2l.409-2.07h2.721l.409 2.047a5.4 5.4 0 011.557.905l1.983-.646 1.361 2.306-1.567 1.383a5.131 5.131 0 010 1.8l1.568 1.424z"/><path class="a" d="M7.833 11.507a3.459 3.459 0 113.459-3.459 3.424 3.424 0 01-3.459 3.459zm0-5.765a2.254 2.254 0 101.646.66 2.254 2.254 0 00-1.646-.66z"/></svg>