<svg xmlns="http://www.w3.org/2000/svg" width="74" height="74"><path fill="#bc1d26" d="M0 0h74v74H0z"/><path d="M21.097 25.93c-1.28-.86-2.462-1.327-6.331-1.327h-6v27.141h4.59v-10h2.524c2.524 0 3.509-.313 4.558-.9 2.492-1.405 3.933-4.3 3.933-7.887.001-3.122-1.146-5.621-3.274-7.027zm-2.3 9.958c-.621 1.132-1.179 1.406-3.048 1.406h-2.393v-8.279h2.916c1.936 0 3.083 1.524 3.083 4.062a5.547 5.547 0 01-.557 2.811zM8.765 54.308H9.82v11.007H8.766zm12 2.807a2.3 2.3 0 00-1.964 1.107 4.9 4.9 0 00-.791 3.017c0 2.649 1.094 4.252 2.913 4.252a2.961 2.961 0 002.214-.994l-.4-.8a2.051 2.051 0 01-1.608.755 1.769 1.769 0 01-1.634-.978 3.766 3.766 0 01-.3-1.749v-.193h4.1v-.177c-.025-1.909-.185-2.663-.75-3.37a2.227 2.227 0 00-1.778-.87zm-1.568 3.466c.052-1.653.58-2.487 1.516-2.487a1.333 1.333 0 011.186.706 4.044 4.044 0 01.3 1.781zm10.182-2.262a2.74 2.74 0 01.158.931v6.065h-1.042v-5.409c0-.851-.052-1.059-.237-1.332a.879.879 0 00-.725-.337 2.87 2.87 0 00-1.819 1.124v5.954h-1v-6.163a4.414 4.414 0 00-.25-1.685l1-.337a3.786 3.786 0 01.238 1.252 2.77 2.77 0 012.069-1.236 1.738 1.738 0 011.61 1.169zM25.72 26.242a3.033 3.033 0 012.754-3.241 3.292 3.292 0 11-2.754 3.241zm.493 5.857l4.393-.82v20.466h-4.393zm6.16 25.242h1.7l-.316.947h-1.42v5.151c0 .883.2 1.189.844 1.189.29 0 .214 0 .4-.11l.146.8a1.32 1.32 0 01-.914.268 1.634 1.634 0 01-.857-.224c-.461-.273-.633-.787-.633-1.589v-5.488h-.857v-.947h.857v-3.023h1.055zm-15.7-3.044h-1.029v2.66c0 .577.013 1.235.013 1.235a2.055 2.055 0 00-1.779-1.01 1.833 1.833 0 00-1.266.5 4.616 4.616 0 00-1.358 3.706c0 2.551.976 4.043 2.676 4.043a1.944 1.944 0 001.741-.929 3.339 3.339 0 00.145.818h1.055a9.738 9.738 0 01-.2-2.583zm-1.042 8.981a1.539 1.539 0 01-.4.578 1.684 1.684 0 01-1.265.513 1.348 1.348 0 01-1.319-.931 5.414 5.414 0 01-.264-2.086 4.537 4.537 0 01.422-2.31 1.361 1.361 0 011.227-.834 1.661 1.661 0 011.595.834zm31.751-5.953l-2.254 8.28c-.448 1.606-.976 2.665-2.123 3l-.3-.851a1.947 1.947 0 001.259-1.47c-.105-.631-.165-.9-.165-.9-.079-.513-.435-2.071-.659-2.872l-1.411-5.007 1.016-.418 1.345 5.183c.2.755.395 1.99.395 1.99h.027l.409-1.684 1.292-5.248zm.888 6.534c0-.278-.144-.388-.411-.388h-.403v1.324h.206v-.57h.125l.288.57h.212l-.3-.579a.309.309 0 00.287-.358zm-.616.178v-.379h.184c.106 0 .226.025.226.181 0 .178-.106.2-.228.2zm.171-1.067a1.185 1.185 0 10.98 1.168 1.088 1.088 0 00-.976-1.17zm0 2.109a.968.968 0 11.741-.941.842.842 0 01-.737.938zm10.631-18.451l-2.362-.039c-.46 0-.721-.2-.721-.469 0-.545.623-1.014 1.737-1.64a4.385 4.385 0 00.656.04 5.886 5.886 0 006.2-5.937 5.4 5.4 0 00-.987-3.278 7.983 7.983 0 001.15.115 3.86 3.86 0 003.082-1.484l-1.836-3.32a4.879 4.879 0 01-3.476 1.72 7.557 7.557 0 01-2.065-.431 10.333 10.333 0 00-3.018-.506c-4.294 0-7.082 2.655-7.082 6.755 0 2.967 1.18 4.8 3.607 5.545-2.756.857-3.082 2.07-3.082 3.358a2.618 2.618 0 001.278 2.615 10.182 10.182 0 004.033.626l1.869.039c1.74.039 3.083.587 3.083 2.382a2.508 2.508 0 01-1.081 2.03 4.576 4.576 0 01-2.753.663c-2.033 0-3.151-.857-3.151-2.46a3.267 3.267 0 01.2-1.287H49.67a4.615 4.615 0 00-.393 2.031 5.107 5.107 0 001.377 3.552c1.508 1.68 3.968 2.148 6.36 2.148 2.623 0 5.15-.7 6.624-2.578a6.3 6.3 0 001.346-4.137 6.019 6.019 0 00-1.444-4.257c-1.184-1.29-2.531-1.758-5.084-1.796zm-4.3-8.436c0-1.873.952-2.969 2.623-2.969s2.657 1.1 2.657 2.969c0 1.836-.951 2.85-2.69 2.85-1.541.001-2.59-.819-2.59-2.85zm-12.53-2.377a4.849 4.849 0 00-3.047 1.794v14.138h-4.4V37.254a17.007 17.007 0 00-.59-4.686l3.9-1.326a5.842 5.842 0 01.625 2.5 18.921 18.921 0 011.935-1.484 6.045 6.045 0 013.016-.857 4.169 4.169 0 014.033 2.889 9.491 9.491 0 01.328 2.85v14.606h-4.33v-13c.006-2.271-.321-2.931-1.47-2.931zm-2.251 22.46v5.151c0 .883.2 1.188.844 1.188.29 0 .214 0 .4-.109l.146.8a1.321 1.321 0 01-.914.268 1.634 1.634 0 01-.857-.224c-.461-.273-.632-.786-.632-1.589v-5.488h-.857v-.947h.857v-3.028h1.055v3.028h1.648l-.316.947zm-4.186-.923l1.067-.2v8.163h-1.067z" fill="#fff"/></svg>